<?xml version="1.0" encoding="utf-8"?>
<!-- Generator: Adobe Illustrator 26.0.1, SVG Export Plug-In . SVG Version: 6.00 Build 0)  -->
<svg version="1.1" id="레이어_1" xmlns="http://www.w3.org/2000/svg" xmlns:xlink="http://www.w3.org/1999/xlink" x="0px"
	 y="0px" width="170.11px" height="31.15px" viewBox="0 0 170.11 31.15" enable-background="new 0 0 170.11 31.15"
	 xml:space="preserve">
<g>
	<path fill="#252525" d="M16.59,30.64H0v-29h5.62v24.35h10.98V30.64z"/>
</g>
<path fill="#FF111A" d="M19.59,3.11c0-0.84,0.3-1.54,0.9-2.11c0.6-0.56,1.37-0.85,2.32-0.85c0.92,0,1.69,0.28,2.31,0.84
	c0.62,0.56,0.93,1.26,0.93,2.12s-0.31,1.56-0.92,2.13c-0.61,0.56-1.38,0.85-2.32,0.85c-0.93,0-1.7-0.29-2.31-0.87
	C19.89,4.64,19.59,3.94,19.59,3.11z"/>
<rect x="20.02" y="9.93" fill="#252525" width="5.48" height="20.71"/>
<path fill="#252525" d="M50.34,30.64h-5.48V19.03c0-3.55-1.28-5.32-3.84-5.32c-1.29,0-2.33,0.48-3.14,1.45
	c-0.81,0.97-1.21,2.19-1.21,3.67v11.8h-5.5V9.93h5.5v3.33h0.06c1.52-2.55,3.76-3.82,6.72-3.82c4.6,0,6.9,2.84,6.9,8.53V30.64z"/>
<path fill="#252525" d="M75.43,30.64h-6.8l-7.35-10.19h-0.06v10.19h-5.5V0h5.5v19.49h0.06l6.92-9.56h6.64l-8.06,9.81L75.43,30.64z"
	/>
<path fill="#252525" d="M98.13,6.31h-8.3v24.33h-5.64V6.31h-8.28V1.64h22.21V6.31z"/>
<path fill="#252525" d="M121.09,30.64h-5.48v-3.19h-0.1c-1.52,2.47-3.64,3.7-6.34,3.7c-4.85,0-7.27-2.92-7.27-8.75V9.93h5.5v11.9
	c0,3.35,1.3,5.02,3.9,5.02c1.27,0,2.31-0.46,3.11-1.37c0.8-0.91,1.2-2.14,1.2-3.68V9.93h5.48V30.64z"/>
<path fill="#252525" d="M132.3,28.06v2.58h-5.5V0h5.5v13.2h0.06c1.6-2.51,3.89-3.76,6.86-3.76c2.63,0,4.68,0.92,6.17,2.76
	c1.48,1.84,2.23,4.34,2.23,7.51c0,3.45-0.85,6.23-2.55,8.31c-1.7,2.09-3.96,3.13-6.79,3.13c-2.59,0-4.56-1.03-5.91-3.09H132.3z
	 M132.22,21.79c0,1.43,0.44,2.63,1.32,3.61c0.88,0.97,1.98,1.46,3.31,1.46c1.6,0,2.86-0.62,3.76-1.87c0.91-1.25,1.36-3,1.36-5.26
	c0-1.88-0.41-3.35-1.24-4.41c-0.83-1.06-2-1.6-3.51-1.6c-1.46,0-2.66,0.54-3.6,1.62c-0.94,1.08-1.41,2.45-1.41,4.12V21.79z"/>
<path fill="#252525" d="M170.11,21.83h-13.83c0.22,3.52,2.22,5.28,5.99,5.28c2.3,0,4.35-0.6,6.15-1.81v4.18
	c-1.92,1.12-4.38,1.67-7.39,1.67c-3.22,0-5.72-0.93-7.52-2.8c-1.79-1.87-2.69-4.47-2.69-7.82c0-3.28,0.96-5.95,2.89-8.01
	c1.92-2.06,4.33-3.08,7.22-3.08c2.89,0,5.14,0.89,6.76,2.66c1.62,1.77,2.42,4.21,2.42,7.31V21.83z M164.93,18.23
	c0-3.28-1.35-4.93-4.06-4.93c-1.13,0-2.12,0.45-2.98,1.34c-0.86,0.89-1.4,2.09-1.61,3.59H164.93z"/>
</svg>
